name Walk8.mot
datacolumns 19
datarows 12
range 1.14500000 1.15600000
endheader

                time	   L_ground_force_vx	   L_ground_force_vy	   L_ground_force_vz	   L_ground_force_px	   L_ground_force_py	   L_ground_force_pz	   R_ground_force_vx	   R_ground_force_vy	   R_ground_force_vz	   R_ground_force_px	   R_ground_force_py	   R_ground_force_pz	   L_ground_torque_x	   L_ground_torque_y	   L_ground_torque_z	   R_ground_torque_x	   R_ground_torque_y	   R_ground_torque_z	
          1.14500000	          0.00000000	          0.00000000	          0.00000000	          0.00000000	          0.00000000	          0.00000000	         38.39701436	        483.21210303	         28.08757850	         -0.11308272	          0.00000000	         -0.04283921	          0.00000000	          0.00000000	          0.00000000	          0.00000000	          0.70736498	          0.00000000	
          1.14600000	          0.00000000	          0.00000000	          0.00000000	          0.00000000	          0.00000000	          0.00000000	         39.08203079	        485.27156009	         28.25149998	         -0.11313984	          0.00000000	         -0.04298111	          0.00000000	          0.00000000	          0.00000000	          0.00000000	          0.71912724	          0.00000000	
          1.14700000	          0.00000000	          0.00000000	          0.00000000	          0.00000000	          0.00000000	          0.00000000	         39.77910644	        487.27437800	         28.45869670	         -0.11319061	          0.00000000	         -0.04292584	          0.00000000	          0.00000000	          0.00000000	          0.00000000	          0.70055828	          0.00000000	
          1.14800000	          0.00000000	          0.00000000	          0.00000000	          0.00000000	          0.00000000	          0.00000000	         40.51133210	        489.24716949	         28.67677822	         -0.11320589	          0.00000000	         -0.04269166	          0.00000000	          0.00000000	          0.00000000	          0.00000000	          0.65761404	          0.00000000	
          1.14900000	          0.00000000	          0.00000000	          0.00000000	          0.00000000	          0.00000000	          0.00000000	         41.30154715	        491.22816687	         28.85236722	         -0.11315786	          0.00000000	         -0.04240173	          0.00000000	          0.00000000	          0.00000000	          0.00000000	          0.60463577	          0.00000000	
          1.15000000	          0.00000000	          0.00000000	          0.00000000	          0.00000000	          0.00000000	          0.00000000	         42.13276440	        493.25056565	         28.95583505	         -0.11304248	          0.00000000	         -0.04221657	          0.00000000	          0.00000000	          0.00000000	          0.00000000	          0.56526472	          0.00000000	
          1.15100000	          0.00000000	          0.00000000	          0.00000000	          0.00000000	          0.00000000	          0.00000000	         42.95990889	        495.33183682	         29.01394530	         -0.11289597	          0.00000000	         -0.04221509	          0.00000000	          0.00000000	          0.00000000	          0.00000000	          0.55556941	          0.00000000	
          1.15200000	          0.00000000	          0.00000000	          0.00000000	          0.00000000	          0.00000000	          0.00000000	         43.75715086	        497.45538142	         29.07937828	         -0.11276254	          0.00000000	         -0.04234652	          0.00000000	          0.00000000	          0.00000000	          0.00000000	          0.57138398	          0.00000000	
          1.15300000	          0.00000000	          0.00000000	          0.00000000	          0.00000000	          0.00000000	          0.00000000	         44.53252507	        499.58576553	         29.18130129	         -0.11265630	          0.00000000	         -0.04250266	          0.00000000	          0.00000000	          0.00000000	          0.00000000	          0.59612861	          0.00000000	
          1.15400000	          0.00000000	          0.00000000	          0.00000000	          0.00000000	          0.00000000	          0.00000000	         45.30312909	        501.70517561	         29.32067543	         -0.11256290	          0.00000000	         -0.04260205	          0.00000000	          0.00000000	          0.00000000	          0.00000000	          0.61738411	          0.00000000	
          1.15500000	          0.00000000	          0.00000000	          0.00000000	          0.00000000	          0.00000000	          0.00000000	         46.07609910	        503.82968479	         29.48987066	         -0.11247023	          0.00000000	         -0.04260984	          0.00000000	          0.00000000	          0.00000000	          0.00000000	          0.63277827	          0.00000000	
          1.15600000	          0.00000000	          0.00000000	          0.00000000	          0.00000000	          0.00000000	          0.00000000	         46.85170639	        505.98612262	         29.67880870	         -0.11238866	          0.00000000	         -0.04252130	          0.00000000	          0.00000000	          0.00000000	          0.00000000	          0.64384162	          0.00000000	
